<svg id="Ńëîé_1" data-name="Ńëîé 1" xmlns="http://www.w3.org/2000/svg" viewBox="0 0 2200 500"><defs><style>.cls-1{fill:#fff;}.cls-2,.cls-3{fill:#eb0000;}.cls-3{fill-rule:evenodd;}</style></defs><rect class="cls-1" width="2200" height="500"/><path class="cls-2" d="M157.34,368.88a15.7,15.7,0,0,1-1.27,6.18C148.13,394.78,109.91,452,106,452h0c-4,0-43.23-58.73-50.44-77.68a17,17,0,0,1-.92-5.4v-71a15.66,15.66,0,0,1,15.66-15.66h71.41a15.66,15.66,0,0,1,15.66,15.66Zm-15.52,3.3A3.16,3.16,0,0,0,145,369V297.75a3.16,3.16,0,0,0-3.15-3.16H70.13A3.17,3.17,0,0,0,67,297.75V369a3.17,3.17,0,0,0,3.16,3.16Z"/><path class="cls-2" d="M46.45,108c0,56.09,58,111.74,58,111.74s58-57.6,58-111.74a58,58,0,0,0-116,0Zm11.93,0A46.06,46.06,0,1,1,104.44,154,46.06,46.06,0,0,1,58.38,108Z"/><path class="cls-2" d="M228.4,340.22c0,56.09,45.11,57.25,58,111.74,13.44-55.49,58-57.6,58-111.74a58,58,0,0,0-116,0Zm11.93,0a46.06,46.06,0,1,1,46.06,46.06A46.06,46.06,0,0,1,240.33,340.22Z"/><path class="cls-2" d="M290.34,50A55.31,55.31,0,0,0,235,105.27c0,44.28,32.22,44.82,48,79.67l-12.8.06,10.13,17.35,10.14,17.34,10-17.45,10-17.45-13.23.07c15.4-35.15,48.45-36.85,48.45-79.59A55.31,55.31,0,0,0,290.34,50Zm0,99.24a43.93,43.93,0,1,1,43.93-43.93A43.93,43.93,0,0,1,290.34,149.2Z"/><path class="cls-3" d="M659.05,404.28a6.27,6.27,0,0,1,3.16.87,6.68,6.68,0,0,1,3.21,4.51L681.49,452l16.1-42.44a7,7,0,0,1,6.38-5.24h7.08a27.63,27.63,0,0,0,27.61-27.61V317.56a27.64,27.64,0,0,0-27.61-27.62H651.94a27.62,27.62,0,0,0-27.62,27.62v59.11a27.6,27.6,0,0,0,26.21,27.58q.69,0,1.41,0Zm-7.38-7.95a19.41,19.41,0,0,1-19.39-19.39V317.29a19.41,19.41,0,0,1,19.39-19.39h59.65a19.41,19.41,0,0,1,19.39,19.39v59.65a19.41,19.41,0,0,1-19.39,19.39Z"/><path class="cls-2" d="M483,282.54a68.67,68.67,0,0,0-53.5,111.32L483,452l53.49-58.1A68.67,68.67,0,0,0,483,282.54Zm.35,129.21a61.36,61.36,0,1,1,61.36-61.36A61.36,61.36,0,0,1,483.35,411.75Z"/><path class="cls-2" d="M495.46,219.69V189.85l3.21-.56a65.74,65.74,0,0,0,30.43-14l.15-.11c16-11.64,26-31.8,26-52.62,0-34.62-29.1-62.78-64.86-62.78-15.92,0-30.48,4.93-42.11,14.25l-.15.12c-16.56,12.43-26,31.05-26,51.08,0,1.43,0,2.91.16,4.47v.19c0,.34,0,.69,0,1C425.25,168.55,453.85,203.15,495.46,219.69ZM489,177.2c-30.26,0-54.88-23.93-54.88-53.33S458.77,70.53,489,70.53s54.88,23.93,54.88,53.34S519.29,177.2,489,177.2Z"/><path class="cls-3" d="M682.1,53.28a52.62,52.62,0,0,0-52.62,52.62,71.11,71.11,0,0,0,2.71,18.61l49.91,95.18L732,124.4a70,70,0,0,0,2.68-18.5A52.62,52.62,0,0,0,682.1,53.28Zm0,97.72a44.7,44.7,0,1,1,44.7-44.69A44.69,44.69,0,0,1,682.1,151Z"/><path class="cls-3" d="M1060.86,316.67c2.4.63,5.28-2,6.44-6l.63-2c1.12-4,.2-7.76-2.07-8.65a2.74,2.74,0,0,0-.78-.35l-17.76-5.05-17.72-5.15a2.76,2.76,0,0,0-.85-.11c-2.4-.46-5.16,2.22-6.35,6.23l-.54,2c-1.14,4-.11,7.8,2.25,8.54-.08,0-.1-.07,1.74.46,2.26.64,2.72,2.19,1.18,5.14-6.53,13.73-19.35,34.87-26.06,49-.27.52-.53,1-.79,1.4-1.41,2-2.93,2.28-5,1.66l-5-1.43c-4.18-1.18-8.79,2-10.3,7.17a1.36,1.36,0,0,0,0,.17c0,.08-.05.16-.08.24l0,0c-.07.27-.12.52-.16.76-.9,4.5,2.32,5.51,6.24,6.64l23.88,6.71,5.84,1.69-6.25,22.07-6.23,21.3a42.29,42.29,0,0,0-1.49,8.07,44.73,44.73,0,0,0,.15,14.63c.19-.21.38-.41.56-.62,0,.28.1.55.16.82a44.73,44.73,0,0,0,7.89-12.31,42.67,42.67,0,0,0,3-7.63l6-21.36,6.43-22,5.85,1.66,23.79,7c3.93,1.13,7.19,2,8.82-2.32q.14-.33.27-.72v0l.06-.25.06-.16c1.45-5.16-.75-10.33-4.92-11.55l-5-1.41c-2.13-.61-3.28-1.61-3.4-4.1,0-.48,0-1,.08-1.6,1.81-15.52,2.17-40.25,3.92-55.36.27-3.31,1.47-4.38,3.73-3.72C1061,316.67,1060.94,316.68,1060.86,316.67Z"/><path class="cls-3" d="M828.88,452l8.94-79.5,23.4,6.71Zm57.73-71c7.22-.51,11-4.84,10.54-12-.84-12.91-4-17.58-4.94-30.49a14.25,14.25,0,0,1,.57-5.07c2.61-8.93,2.83-9.6,5.34-18.56,2.07-7.38-1.5-13.66-8.88-15.81-5.43-1.58-10.86-3.12-16.3-4.68l-15.89-4.57c-7.9-2.26-14.1,1.18-16.39,9.08-2.56,8.87-2.75,9.48-5.27,18.36a13.13,13.13,0,0,1-2,4.2c-7.72,10.66-13.06,13.06-20.75,23.74-3.63,5-3.06,10.22,1.56,14.36a20.56,20.56,0,0,0,8.3,4.33c6.54,1.87,49.79,14.3,56.32,16.19A22.38,22.38,0,0,0,886.61,380.94Z"/><path class="cls-3" d="M997.17,219.65c1.27.31,1.4-1.07,1.78-1.89,5-11,9.79-22.12,15-33,4.57-9.56,5.5-11,6-12.91,1.93-7.15,7.75-26.89,10.67-37.33l16.25,4.67a11.42,11.42,0,0,0,8.24-21.19l3.6-12.53,4-13.77A11.41,11.41,0,0,0,1067,69.36l-49.21-14.12a11.41,11.41,0,0,0-7.31,21.6L1007.5,87.1,1003,102.87a11.41,11.41,0,0,0-5.29,22.18l16.23,4.65c-3.33,11.24-6.52,22.52-9.74,33.78a24.55,24.55,0,0,0-.84,3.38q-3.42,25.15-6.79,50.33C996.43,218.08,995.86,219.33,997.17,219.65Z"/><path class="cls-3" d="M1416.78,303.57l-.06-.05a14.05,14.05,0,0,0-1.51-.85L1387,294.62l-28.19-8.16a13.85,13.85,0,0,0-1.72-.08H1357c-2.88.06-8.11,1.06-7.2,7.66l12.35,25.85,2.38,6.51-22.48,17.91c-2.1,1.27-4,2.38-5.65,3.22-4,2.06-4.46,4.22-3.7,6-.09,1.8.61,4.22,4.61,5.1,2.49.56,11.28,2.92,21.33,5.66q-3.77,13.05-7.49,26.12a32.67,32.67,0,0,0-.94,3.72q-4.45,27.57-8.83,55.14c-.16,1-.75,2.37.45,2.65s1.36-1.24,1.74-2.15c5.2-12.24,10.21-24.57,15.6-36.71,4.72-10.63,5.67-12.25,6.24-14.34,1.56-5.75,5.39-18.86,8.6-30,10,3,18.69,5.69,21.1,6.54,3.85,1.37,5.73-.3,6.61-1.87,1.59-1.12,2.35-3.2.06-7.06-.93-1.57-2-3.55-3.08-5.74l-9.55-27.11,5.47-4.24,24.2-15.35C1423.09,308.77,1419.19,305.15,1416.78,303.57Z"/><path class="cls-3" d="M1239.53,346.31a42.06,42.06,0,1,1-28.81-52A42.07,42.07,0,0,1,1239.53,346.31Zm-64.34,30.11L1166.7,452l30.74-69.22a44.85,44.85,0,0,1-11.65-1.74A45.34,45.34,0,0,1,1175.19,376.42Z"/><path class="cls-3" d="M1385.93,62.16l-.13,0-.37-.1-.37-.11-.13,0c-15.35-4.36-23.5-4.57-30.87-3.37-4.66.66-7.54,2.24-8.21,4.64-1,3.42-1.31,6.61,6.29,11l-12.12,43c-13.48-1.33-23.24,4.76-24.61,9.46a1.06,1.06,0,0,0,0,.19,2,2,0,0,0-.09.26c-1.92,6.8,14.21,8.5,38.8,16.44l-.11.64-.46,2.36.07,0-8.52,51-4.35,22,1.14-2.75-.49,2.93,8-20.94,21.06-50.61c24,6.21,38,12.87,39.94,6.24l.06-.27.07-.18c1.33-4.71-3.71-15.06-15.84-21.08L1407.21,90c8.77.31,10.17-2.58,11.17-6,.7-2.38-.9-5.25-4.5-8.28C1408.28,70.77,1401.26,66.61,1385.93,62.16Z"/><path class="cls-3" d="M908.92,73.05c-13.28-4-24.93-7.47-36.36-10.66-11.39-3.37-23.09-6.63-36.48-10.27-.63-.17-1.17.39-1.59,1.28-1.14,1.52-1.64,5.57-1.06,7,2.38,5.74,21.46,12,22.2,12.21l-17.93,52-12,1.47c-21.38-6.39-26.11,9.11-26.11,9.11l.08,0a9.74,9.74,0,0,0-.38,1l42,11.58-4.39,15.72L825.8,201.68a21.8,21.8,0,0,0-.86,6.23,26.56,26.56,0,0,0,1.58,11.55l.55-.43.25.66a26.48,26.48,0,0,0,7.47-8.95,22.35,22.35,0,0,0,2.58-5.73l10.86-38.22,4.62-15.67,42.57,12.74a9.39,9.39,0,0,0,.21-1.07l.09,0s4.21-15.64-17.29-21.58l-9.38-7.61L881.48,80c.76.19,20.23,5,25.29,1.44,1.25-.89,3-4.59,2.81-6.48C909.7,74,909.54,73.24,908.92,73.05Z"/><path class="cls-3" d="M1151.35,127.44a.67.67,0,0,1,0-.64l0,0c2.95-6.37,13.19-12.59,21.71-11-.33,1.7.49,5.18,21.12,11.11,6.09,1.75,20.66,5.58,24.52,3.37a2.88,2.88,0,0,0,1.4-1.66v0c7.44,2.93,14.82,13.56,12.65,21.28-.27,1-3.77,1.66-12.76.48a225,225,0,0,1-29.52-6.43l-1.47-.42C1171.63,138.41,1152.77,131.07,1151.35,127.44Zm44-3.34c11.12,3.2,20.63,4.72,22.61,3.62a.47.47,0,0,0,.25-.26L1229.4,95a191.33,191.33,0,0,1-23.4-5.18l-1.5-.42a190.94,190.94,0,0,1-21.16-7.32L1176,115.6C1175.61,117,1182.73,120.49,1195.3,124.1ZM1212,68.79a181.58,181.58,0,0,0,29,5.81l-.07-.69,0-.08c.41-1.44-8.56-6.28-25.84-11.24l-1.26-.36c-17.43-4.89-28.74-5.74-29.18-4.19l0,.07-.42.55a179.6,179.6,0,0,0,26.57,9.78Zm-6.61,17.83,1.49.42c20.82,5.84,34.33,6.83,34.85,5a.37.37,0,0,0,0-.21l0-.09-.69-15.2c-5.75.11-17.28-2-29.65-5.48-12.54-3.53-23.31-7.65-28.18-10.75L1174.55,73l0,0a.31.31,0,0,0,0,.09C1174,74.89,1184.7,80.69,1205.34,86.62ZM1169,219.69l8.09-18.21,24.76-51.54-1.67-.48h0l-10.45-3-10.48-3-.46-.13-1.17-.33-6.39,56.81-2.82,19.74.78-1.62Z"/><path class="cls-2" d="M1508.71,58.34a7.35,7.35,0,1,1-7.34-7.34A7.34,7.34,0,0,1,1508.71,58.34Zm-7.34,10.29a7.42,7.42,0,0,1-3.6-.94v148.5a3.6,3.6,0,0,0,7.19,0V67.69A7.39,7.39,0,0,1,1501.37,68.63Zm9-.08v69.8h103.28l-31.18-34.9,31.18-34.9Z"/><path class="cls-2" d="M1870.45,290.61a7.35,7.35,0,1,1-7.35-7.35A7.35,7.35,0,0,1,1870.45,290.61Zm-7.35,10.29a7.26,7.26,0,0,1-3.59-.95V448.46a3.59,3.59,0,0,0,7.18,0V300A7.26,7.26,0,0,1,1863.1,300.9Zm9.72-.08v69.8h78.3l34.94-34.9-34.94-34.9Z"/><path class="cls-2" d="M1509,290.61a7.35,7.35,0,1,1-7.35-7.35A7.35,7.35,0,0,1,1509,290.61Zm-7.35,10.29A7.29,7.29,0,0,1,1498,300V448.46a3.6,3.6,0,0,0,7.19,0V300A7.32,7.32,0,0,1,1501.63,300.9Zm110.07-.08H1511.35v69.8H1611.7Z"/><path class="cls-2" d="M2054.41,290.61a7.35,7.35,0,1,1-7.35-7.35A7.35,7.35,0,0,1,2054.41,290.61Zm-7.35,10.29a7.32,7.32,0,0,1-3.6-.95V448.46a3.6,3.6,0,0,0,7.19,0V300A7.26,7.26,0,0,1,2047.06,300.9Zm114.49,1.19H2056.64v80.48Z"/><path class="cls-2" d="M1690.43,290.61a7.35,7.35,0,1,1-7.35-7.35A7.35,7.35,0,0,1,1690.43,290.61Zm-7.35,10.29a7.32,7.32,0,0,1-3.6-.95V448.46a3.6,3.6,0,0,0,7.19,0V300A7.29,7.29,0,0,1,1683.08,300.9ZM1798.3,344l-104.9-41.88v80.48Z"/><path class="cls-2" d="M2054.34,58.34A7.35,7.35,0,1,1,2047,51,7.34,7.34,0,0,1,2054.34,58.34ZM2047,68.63a7.42,7.42,0,0,1-3.6-.94v148.5a3.6,3.6,0,0,0,7.19,0V67.69A7.39,7.39,0,0,1,2047,68.63Zm75.52,27.88c11-5.68,22-13.88,32.93-11.44-33.21-25.86-62.26,14-99.64-17.46v66.13c38,16.92,57.92-31.07,99.64-14.92C2155.45,118.82,2133.5,98.33,2122.52,96.51Z"/><path class="cls-2" d="M1870.73,58.34a7.35,7.35,0,1,1-7.34-7.34A7.35,7.35,0,0,1,1870.73,58.34Zm-7.34,10.29a7.42,7.42,0,0,1-3.6-.94v148.5a3.6,3.6,0,0,0,7.19,0V67.69A7.39,7.39,0,0,1,1863.39,68.63Zm109.16-5.35s-7.28,4.37-10.48,4.41-7.66-4.38-11-4.41-8,4.41-11.43,4.41-8-4.44-11.43-4.41-7.66,4.34-11,4.41c-3.49.06-8.41-4.41-11.9-4.41s-8.41,4.38-11.91,4.41-8.8-4.69-12.39-4.41c-2.87.22-8.89,4.41-8.89,4.41v66.86s5.63-4.23,8.42-4.41c3.29-.21,7.66,4.35,11,4.41,3.5.06,8.41-4.38,11.91-4.41s8.79,4.47,12.39,4.41c3.39-.06,8-4.44,11.43-4.41s7.66,4.38,11,4.41,8-4.41,11.44-4.41,8,4.41,11.43,4.41,11.43-4.41,11.43-4.41Z"/><path class="cls-2" d="M1690.58,58.34a7.35,7.35,0,1,1-7.35-7.34A7.35,7.35,0,0,1,1690.58,58.34Zm-7.35,10.29a7.36,7.36,0,0,1-3.59-.94v148.5a3.59,3.59,0,0,0,7.18,0V67.69A7.36,7.36,0,0,1,1683.23,68.63Zm109.16-9.26c-13.87,7.51-42.26,9.8-45.2,2.21-2.75-7.12-46.69-3.7-55.14,7.34v69.8c12.73-10.17,51.48-19.88,54.82-7.34,2,7.34,38.74,5.48,45.52-3.68Z"/></svg>